<svg width="1356" height="810" viewBox="0 0 1356 810" fill="none" xmlns="http://www.w3.org/2000/svg">
	<circle cx="1129" cy="144" r="491.5" stroke="white" stroke-width="3" />
	<circle cx="1048" cy="22" r="786.5" stroke="white" stroke-width="3" />
	<path d="M46.8 271.6C51.48 272.38 54.99 274.09 57.33 276.73C59.73 279.37 60.93 282.88 60.93 287.26C60.93 292.66 59.04 296.8 55.26 299.68C51.48 302.56 45.87 304 38.43 304H11.34V241H36.72C43.32 241 48.45 242.38 52.11 245.14C55.83 247.9 57.69 251.86 57.69 257.02C57.69 260.68 56.73 263.74 54.81 266.2C52.89 268.66 50.22 270.46 46.8 271.6ZM15.93 270.16H36.63C41.91 270.16 45.96 269.08 48.78 266.92C51.6 264.76 53.01 261.64 53.01 257.56C53.01 253.42 51.6 250.27 48.78 248.11C45.96 245.95 41.91 244.87 36.63 244.87H15.93V270.16ZM38.52 300.13C50.4 300.13 56.34 295.75 56.34 286.99C56.34 282.49 54.84 279.19 51.84 277.09C48.84 274.99 44.4 273.94 38.52 273.94H15.93V300.13H38.52ZM92.61 304.36C88.05 304.36 83.97 303.34 80.37 301.3C76.77 299.26 73.95 296.44 71.91 292.84C69.87 289.18 68.85 285.07 68.85 280.51C68.85 275.89 69.87 271.78 71.91 268.18C73.95 264.52 76.77 261.7 80.37 259.72C83.97 257.68 88.05 256.66 92.61 256.66C96.39 256.66 99.81 257.41 102.87 258.91C105.99 260.35 108.51 262.48 110.43 265.3L107.1 267.73C105.42 265.39 103.32 263.65 100.8 262.51C98.34 261.31 95.61 260.71 92.61 260.71C88.95 260.71 85.65 261.55 82.71 263.23C79.83 264.85 77.55 267.16 75.87 270.16C74.25 273.16 73.44 276.61 73.44 280.51C73.44 284.41 74.25 287.86 75.87 290.86C77.55 293.86 79.83 296.2 82.71 297.88C85.65 299.5 88.95 300.31 92.61 300.31C95.61 300.31 98.34 299.74 100.8 298.6C103.32 297.4 105.42 295.63 107.1 293.29L110.43 295.72C108.51 298.54 105.99 300.7 102.87 302.2C99.81 303.64 96.39 304.36 92.61 304.36ZM159.377 281.59H118.967C119.087 285.25 120.017 288.52 121.757 291.4C123.497 294.22 125.837 296.41 128.777 297.97C131.777 299.53 135.137 300.31 138.857 300.31C141.917 300.31 144.737 299.77 147.317 298.69C149.957 297.55 152.147 295.9 153.887 293.74L156.497 296.71C154.457 299.17 151.877 301.06 148.757 302.38C145.697 303.7 142.367 304.36 138.767 304.36C134.087 304.36 129.917 303.34 126.257 301.3C122.597 299.26 119.717 296.44 117.617 292.84C115.577 289.24 114.557 285.13 114.557 280.51C114.557 275.95 115.517 271.87 117.437 268.27C119.417 264.61 122.117 261.76 125.537 259.72C128.957 257.68 132.797 256.66 137.057 256.66C141.317 256.66 145.127 257.68 148.487 259.72C151.907 261.7 154.577 264.49 156.497 268.09C158.477 271.69 159.467 275.77 159.467 280.33L159.377 281.59ZM137.057 260.62C133.757 260.62 130.787 261.37 128.147 262.87C125.507 264.31 123.377 266.38 121.757 269.08C120.197 271.72 119.297 274.72 119.057 278.08H155.057C154.877 274.72 153.977 271.72 152.357 269.08C150.737 266.44 148.607 264.37 145.967 262.87C143.327 261.37 140.357 260.62 137.057 260.62ZM129.317 246.94C128.417 246.94 127.637 246.64 126.977 246.04C126.377 245.38 126.077 244.6 126.077 243.7C126.077 242.74 126.377 241.96 126.977 241.36C127.637 240.76 128.417 240.46 129.317 240.46C130.217 240.46 130.967 240.79 131.567 241.45C132.227 242.05 132.557 242.8 132.557 243.7C132.557 244.6 132.227 245.38 131.567 246.04C130.907 246.64 130.157 246.94 129.317 246.94ZM144.797 246.94C143.957 246.94 143.207 246.64 142.547 246.04C141.887 245.38 141.557 244.6 141.557 243.7C141.557 242.8 141.857 242.05 142.457 241.45C143.117 240.79 143.897 240.46 144.797 240.46C145.697 240.46 146.447 240.76 147.047 241.36C147.707 241.96 148.037 242.74 148.037 243.7C148.037 244.6 147.707 245.38 147.047 246.04C146.447 246.64 145.697 246.94 144.797 246.94ZM209.076 304.36C204.516 304.36 200.436 303.34 196.836 301.3C193.236 299.26 190.416 296.44 188.376 292.84C186.336 289.18 185.316 285.07 185.316 280.51C185.316 275.89 186.336 271.78 188.376 268.18C190.416 264.52 193.236 261.7 196.836 259.72C200.436 257.68 204.516 256.66 209.076 256.66C212.856 256.66 216.276 257.41 219.336 258.91C222.456 260.35 224.976 262.48 226.896 265.3L223.566 267.73C221.886 265.39 219.786 263.65 217.266 262.51C214.806 261.31 212.076 260.71 209.076 260.71C205.416 260.71 202.116 261.55 199.176 263.23C196.296 264.85 194.016 267.16 192.336 270.16C190.716 273.16 189.906 276.61 189.906 280.51C189.906 284.41 190.716 287.86 192.336 290.86C194.016 293.86 196.296 296.2 199.176 297.88C202.116 299.5 205.416 300.31 209.076 300.31C212.076 300.31 214.806 299.74 217.266 298.6C219.786 297.4 221.886 295.63 223.566 293.29L226.896 295.72C224.976 298.54 222.456 300.7 219.336 302.2C216.276 303.64 212.856 304.36 209.076 304.36ZM271.37 257.02V304H266.87V261.07H242.39L241.76 273.58C241.4 280.06 240.86 285.49 240.14 289.87C239.42 294.25 238.19 297.79 236.45 300.49C234.71 303.19 232.31 304.54 229.25 304.54C228.35 304.54 227.06 304.33 225.38 303.91L225.83 300.04C226.79 300.28 227.51 300.4 227.99 300.4C230.51 300.4 232.43 299.17 233.75 296.71C235.07 294.25 235.97 291.19 236.45 287.53C236.93 283.87 237.32 279.1 237.62 273.22L238.43 257.02H271.37ZM305.932 304.36C301.492 304.36 297.472 303.34 293.872 301.3C290.332 299.26 287.542 296.44 285.502 292.84C283.462 289.18 282.442 285.07 282.442 280.51C282.442 275.95 283.462 271.87 285.502 268.27C287.542 264.61 290.332 261.76 293.872 259.72C297.472 257.68 301.492 256.66 305.932 256.66C310.372 256.66 314.362 257.68 317.902 259.72C321.502 261.76 324.322 264.61 326.362 268.27C328.402 271.87 329.422 275.95 329.422 280.51C329.422 285.07 328.402 289.18 326.362 292.84C324.322 296.44 321.502 299.26 317.902 301.3C314.362 303.34 310.372 304.36 305.932 304.36ZM305.932 300.31C309.532 300.31 312.742 299.47 315.562 297.79C318.442 296.11 320.692 293.77 322.312 290.77C323.992 287.77 324.832 284.35 324.832 280.51C324.832 276.67 323.992 273.25 322.312 270.25C320.692 267.25 318.442 264.91 315.562 263.23C312.742 261.55 309.532 260.71 305.932 260.71C302.332 260.71 299.092 261.55 296.212 263.23C293.392 264.91 291.142 267.25 289.462 270.25C287.842 273.25 287.032 276.67 287.032 280.51C287.032 284.35 287.842 287.77 289.462 290.77C291.142 293.77 293.392 296.11 296.212 297.79C299.092 299.47 302.332 300.31 305.932 300.31ZM378.677 282.22H367.607V304H363.107V282.22H352.127L336.467 304H330.977L348.527 279.88L332.417 257.02H337.367L352.127 278.35H363.107V257.02H367.607V278.35H378.677L393.437 257.02H398.387L382.277 279.88L399.737 304H394.337L378.677 282.22ZM407.805 257.02H412.305V297.07L445.785 257.02H449.745V304H445.245V263.95L411.765 304H407.805V257.02ZM496.962 261.07H478.602V304H474.102V261.07H455.742V257.02H496.962V261.07ZM519.79 304.36C515.23 304.36 511.15 303.34 507.55 301.3C503.95 299.26 501.13 296.44 499.09 292.84C497.05 289.18 496.03 285.07 496.03 280.51C496.03 275.89 497.05 271.78 499.09 268.18C501.13 264.52 503.95 261.7 507.55 259.72C511.15 257.68 515.23 256.66 519.79 256.66C523.57 256.66 526.99 257.41 530.05 258.91C533.17 260.35 535.69 262.48 537.61 265.3L534.28 267.73C532.6 265.39 530.5 263.65 527.98 262.51C525.52 261.31 522.79 260.71 519.79 260.71C516.13 260.71 512.83 261.55 509.89 263.23C507.01 264.85 504.73 267.16 503.05 270.16C501.43 273.16 500.62 276.61 500.62 280.51C500.62 284.41 501.43 287.86 503.05 290.86C504.73 293.86 507.01 296.2 509.89 297.88C512.83 299.5 516.13 300.31 519.79 300.31C522.79 300.31 525.52 299.74 527.98 298.6C530.5 297.4 532.6 295.63 534.28 293.29L537.61 295.72C535.69 298.54 533.17 300.7 530.05 302.2C526.99 303.64 523.57 304.36 519.79 304.36ZM580.278 257.02V304H576.138V287.8H560.478C559.398 287.8 558.618 287.77 558.138 287.71L546.528 304H541.578L553.728 287.17C549.888 286.33 546.948 284.68 544.908 282.22C542.868 279.76 541.848 276.58 541.848 272.68C541.848 267.52 543.558 263.62 546.978 260.98C550.458 258.34 555.198 257.02 561.198 257.02H580.278ZM546.348 272.86C546.348 280.54 551.208 284.38 560.928 284.38H576.138V260.98H561.468C551.388 260.98 546.348 264.94 546.348 272.86ZM595.091 241H600.311L599.411 285.91H595.991L595.091 241ZM597.701 304.36C596.681 304.36 595.811 304 595.091 303.28C594.371 302.56 594.011 301.69 594.011 300.67C594.011 299.65 594.371 298.78 595.091 298.06C595.811 297.34 596.681 296.98 597.701 296.98C598.781 296.98 599.681 297.34 600.401 298.06C601.121 298.78 601.481 299.65 601.481 300.67C601.481 301.69 601.121 302.56 600.401 303.28C599.681 304 598.781 304.36 597.701 304.36Z" fill="white" />
	<path d="M22.502 217.226H18.65V227H15.14V217.226H11.27V214.4H22.502V217.226ZM26.7303 217.082C28.3503 217.082 29.5863 217.454 30.4383 218.198C31.2903 218.93 31.7163 220.058 31.7163 221.582V227H28.5303V225.74C28.0383 226.688 27.0783 227.162 25.6503 227.162C24.8943 227.162 24.2403 227.03 23.6883 226.766C23.1363 226.502 22.7163 226.148 22.4283 225.704C22.1523 225.248 22.0143 224.732 22.0143 224.156C22.0143 223.232 22.3683 222.518 23.0763 222.014C23.7843 221.498 24.8763 221.24 26.3523 221.24H28.2963C28.2363 220.208 27.5463 219.692 26.2263 219.692C25.7583 219.692 25.2843 219.77 24.8043 219.926C24.3243 220.07 23.9163 220.274 23.5803 220.538L22.4283 218.216C22.9683 217.856 23.6223 217.58 24.3903 217.388C25.1703 217.184 25.9503 217.082 26.7303 217.082ZM26.6043 225.002C27.0003 225.002 27.3483 224.906 27.6483 224.714C27.9483 224.522 28.1643 224.24 28.2963 223.868V223.022H26.8203C25.8243 223.022 25.3263 223.352 25.3263 224.012C25.3263 224.312 25.4403 224.552 25.6683 224.732C25.8963 224.912 26.2083 225.002 26.6043 225.002ZM42.9898 217.244V227H39.5698V219.962H37.1038L37.0318 221.456C36.9838 222.728 36.8578 223.778 36.6538 224.606C36.4498 225.434 36.1138 226.082 35.6458 226.55C35.1778 227.006 34.5358 227.234 33.7198 227.234C33.2998 227.234 32.7478 227.156 32.0638 227L32.2078 224.21C32.4238 224.234 32.5678 224.246 32.6398 224.246C33.0118 224.246 33.2938 224.126 33.4858 223.886C33.6778 223.646 33.8098 223.328 33.8818 222.932C33.9538 222.524 34.0018 221.984 34.0258 221.312L34.1698 217.244H42.9898ZM48.5462 217.082C50.1662 217.082 51.4022 217.454 52.2542 218.198C53.1062 218.93 53.5322 220.058 53.5322 221.582V227H50.3462V225.74C49.8542 226.688 48.8942 227.162 47.4662 227.162C46.7102 227.162 46.0562 227.03 45.5042 226.766C44.9522 226.502 44.5322 226.148 44.2442 225.704C43.9682 225.248 43.8302 224.732 43.8302 224.156C43.8302 223.232 44.1842 222.518 44.8922 222.014C45.6002 221.498 46.6922 221.24 48.1682 221.24H50.1122C50.0522 220.208 49.3622 219.692 48.0422 219.692C47.5742 219.692 47.1002 219.77 46.6202 219.926C46.1402 220.07 45.7322 220.274 45.3962 220.538L44.2442 218.216C44.7842 217.856 45.4382 217.58 46.2062 217.388C46.9862 217.184 47.7662 217.082 48.5462 217.082ZM48.4202 225.002C48.8162 225.002 49.1642 224.906 49.4642 224.714C49.7642 224.522 49.9802 224.24 50.1122 223.868V223.022H48.6362C47.6402 223.022 47.1422 223.352 47.1422 224.012C47.1422 224.312 47.2562 224.552 47.4842 224.732C47.7122 224.912 48.0242 225.002 48.4202 225.002ZM54.8697 217.244H58.2717V220.862H61.7817V217.244H65.2017V227H61.7817V223.58H58.2717V227H54.8697V217.244ZM75.5003 219.962H72.3683V227H68.9663V219.962H65.8163V217.244H75.5003V219.962ZM81.6854 220.268C82.9694 220.28 83.9354 220.568 84.5834 221.132C85.2314 221.696 85.5554 222.5 85.5554 223.544C85.5554 224.636 85.1774 225.488 84.4214 226.1C83.6774 226.712 82.6214 227.012 81.2534 227H76.1054V217.244H79.5074V220.268H81.6854ZM86.3834 217.244H89.7854V227H86.3834V217.244ZM80.9114 224.66C81.7754 224.66 82.2074 224.27 82.2074 223.49C82.2074 223.106 82.0994 222.824 81.8834 222.644C81.6674 222.464 81.3434 222.368 80.9114 222.356H79.5074V224.642L80.9114 224.66ZM94.4841 227H103.484V228.368H94.4841V227ZM119.547 214.4V227H117.243V216.38H112.275L112.167 219.53C112.107 221.294 111.963 222.728 111.735 223.832C111.507 224.924 111.141 225.758 110.637 226.334C110.133 226.898 109.437 227.18 108.549 227.18C108.237 227.18 107.811 227.12 107.271 227L107.433 224.966C107.589 225.014 107.769 225.038 107.973 225.038C108.705 225.038 109.221 224.606 109.521 223.742C109.833 222.866 110.025 221.492 110.097 219.62L110.277 214.4H119.547ZM122.119 217.388H124.369V223.724L129.679 217.388H131.731V227H129.481V220.664L124.189 227H122.119V217.388ZM141.418 219.296H136.288V227H134.038V217.388H141.418V219.296ZM145.918 217.28C147.334 217.28 148.414 217.622 149.158 218.306C149.914 218.978 150.292 219.998 150.292 221.366V227H148.168V225.83C147.892 226.25 147.496 226.574 146.98 226.802C146.476 227.018 145.864 227.126 145.144 227.126C144.424 227.126 143.794 227.006 143.254 226.766C142.714 226.514 142.294 226.172 141.994 225.74C141.706 225.296 141.562 224.798 141.562 224.246C141.562 223.382 141.88 222.692 142.516 222.176C143.164 221.648 144.178 221.384 145.558 221.384H148.042V221.24C148.042 220.568 147.838 220.052 147.43 219.692C147.034 219.332 146.44 219.152 145.648 219.152C145.108 219.152 144.574 219.236 144.046 219.404C143.53 219.572 143.092 219.806 142.732 220.106L141.85 218.468C142.354 218.084 142.96 217.79 143.668 217.586C144.376 217.382 145.126 217.28 145.918 217.28ZM145.612 225.488C146.176 225.488 146.674 225.362 147.106 225.11C147.55 224.846 147.862 224.474 148.042 223.994V222.878H145.72C144.424 222.878 143.776 223.304 143.776 224.156C143.776 224.564 143.938 224.888 144.262 225.128C144.586 225.368 145.036 225.488 145.612 225.488ZM167.644 214.22C168.88 214.22 169.99 214.502 170.974 215.066C171.97 215.618 172.75 216.386 173.314 217.37C173.878 218.354 174.16 219.464 174.16 220.7C174.16 221.936 173.878 223.046 173.314 224.03C172.75 225.014 171.97 225.788 170.974 226.352C169.99 226.904 168.88 227.18 167.644 227.18C166.516 227.18 165.484 226.946 164.548 226.478C163.624 226.01 162.862 225.356 162.262 224.516C161.674 223.676 161.308 222.722 161.164 221.654H159.184V227H156.88V214.4H159.184V219.566H161.2C161.368 218.522 161.746 217.598 162.334 216.794C162.934 215.978 163.69 215.348 164.602 214.904C165.526 214.448 166.54 214.22 167.644 214.22ZM167.644 225.128C168.424 225.128 169.132 224.942 169.768 224.57C170.404 224.198 170.902 223.676 171.262 223.004C171.622 222.332 171.802 221.564 171.802 220.7C171.802 219.836 171.622 219.068 171.262 218.396C170.902 217.724 170.404 217.202 169.768 216.83C169.132 216.458 168.424 216.272 167.644 216.272C166.864 216.272 166.156 216.458 165.52 216.83C164.896 217.202 164.398 217.724 164.026 218.396C163.666 219.068 163.486 219.836 163.486 220.7C163.486 221.564 163.666 222.332 164.026 223.004C164.398 223.676 164.896 224.198 165.52 224.57C166.156 224.942 166.864 225.128 167.644 225.128ZM175.806 217.388H178.056V221.294H182.898V217.388H185.148V227H182.898V223.202H178.056V227H175.806V217.388ZM187.444 217.388H189.694V223.724L195.004 217.388H197.056V227H194.806V220.664L189.514 227H187.444V217.388ZM203.647 227.126C202.675 227.126 201.799 226.916 201.019 226.496C200.239 226.076 199.627 225.494 199.183 224.75C198.751 223.994 198.535 223.142 198.535 222.194C198.535 221.246 198.751 220.4 199.183 219.656C199.627 218.912 200.239 218.33 201.019 217.91C201.799 217.49 202.675 217.28 203.647 217.28C204.631 217.28 205.513 217.49 206.293 217.91C207.073 218.33 207.679 218.912 208.111 219.656C208.555 220.4 208.777 221.246 208.777 222.194C208.777 223.142 208.555 223.994 208.111 224.75C207.679 225.494 207.073 226.076 206.293 226.496C205.513 226.916 204.631 227.126 203.647 227.126ZM203.647 225.2C204.475 225.2 205.159 224.924 205.699 224.372C206.239 223.82 206.509 223.094 206.509 222.194C206.509 221.294 206.239 220.568 205.699 220.016C205.159 219.464 204.475 219.188 203.647 219.188C202.819 219.188 202.135 219.464 201.595 220.016C201.067 220.568 200.803 221.294 200.803 222.194C200.803 223.094 201.067 223.82 201.595 224.372C202.135 224.924 202.819 225.2 203.647 225.2ZM215.607 217.28C216.543 217.28 217.377 217.484 218.109 217.892C218.853 218.3 219.435 218.876 219.855 219.62C220.275 220.364 220.485 221.222 220.485 222.194C220.485 223.166 220.275 224.03 219.855 224.786C219.435 225.53 218.853 226.106 218.109 226.514C217.377 226.922 216.543 227.126 215.607 227.126C214.311 227.126 213.285 226.694 212.529 225.83V230.492H210.279V217.388H212.421V218.648C212.793 218.192 213.249 217.85 213.789 217.622C214.341 217.394 214.947 217.28 215.607 217.28ZM215.355 225.2C216.183 225.2 216.861 224.924 217.389 224.372C217.929 223.82 218.199 223.094 218.199 222.194C218.199 221.294 217.929 220.568 217.389 220.016C216.861 219.464 216.183 219.188 215.355 219.188C214.815 219.188 214.329 219.314 213.897 219.566C213.465 219.806 213.123 220.154 212.871 220.61C212.619 221.066 212.493 221.594 212.493 222.194C212.493 222.794 212.619 223.322 212.871 223.778C213.123 224.234 213.465 224.588 213.897 224.84C214.329 225.08 214.815 225.2 215.355 225.2ZM226.289 227.126C225.317 227.126 224.441 226.916 223.661 226.496C222.881 226.076 222.269 225.494 221.825 224.75C221.393 223.994 221.177 223.142 221.177 222.194C221.177 221.246 221.393 220.4 221.825 219.656C222.269 218.912 222.881 218.33 223.661 217.91C224.441 217.49 225.317 217.28 226.289 217.28C227.273 217.28 228.155 217.49 228.935 217.91C229.715 218.33 230.321 218.912 230.753 219.656C231.197 220.4 231.419 221.246 231.419 222.194C231.419 223.142 231.197 223.994 230.753 224.75C230.321 225.494 229.715 226.076 228.935 226.496C228.155 226.916 227.273 227.126 226.289 227.126ZM226.289 225.2C227.117 225.2 227.801 224.924 228.341 224.372C228.881 223.82 229.151 223.094 229.151 222.194C229.151 221.294 228.881 220.568 228.341 220.016C227.801 219.464 227.117 219.188 226.289 219.188C225.461 219.188 224.777 219.464 224.237 220.016C223.709 220.568 223.445 221.294 223.445 222.194C223.445 223.094 223.709 223.82 224.237 224.372C224.777 224.924 225.461 225.2 226.289 225.2ZM239.887 221.996C241.075 222.356 241.669 223.124 241.669 224.3C241.669 225.164 241.345 225.83 240.697 226.298C240.049 226.766 239.089 227 237.817 227H232.921V217.388H237.619C238.795 217.388 239.713 217.604 240.373 218.036C241.033 218.468 241.363 219.08 241.363 219.872C241.363 220.364 241.231 220.79 240.967 221.15C240.715 221.51 240.355 221.792 239.887 221.996ZM235.063 221.402H237.421C238.585 221.402 239.167 221 239.167 220.196C239.167 219.416 238.585 219.026 237.421 219.026H235.063V221.402ZM237.637 225.362C238.873 225.362 239.491 224.96 239.491 224.156C239.491 223.736 239.347 223.424 239.059 223.22C238.771 223.004 238.321 222.896 237.709 222.896H235.063V225.362H237.637Z" fill="white" />
	<circle cx="637.5" cy="134.5" r="14.5" fill="white" />
	<circle cx="306" cy="280" r="26" fill="white" />
</svg>
