<svg width="406"
     height="406"
     viewBox="0 0 406 406"
     fill="none"
     xmlns="http://www.w3.org/2000/svg">
<circle cx="203"
        cy="203"
        r="203"
        fill="url(#paint0_linear_4099_456)" />
<path d="M142.937 335.736L146.687 315.59C150.9 292.847 155.118 270.104 159.341 247.361C160.848 239.296 162.201 231.135 163.982 223.167C164.288 222.182 164.22 221.127 163.788 220.184C163.357 219.242 162.589 218.471 161.619 218.005C128.662 195.413 95.7233 172.879 62.8013 150.405C61.7568 149.695 60.7294 148.97 59 147.76L103.349 145.744L74.6848 111C79.445 111.742 83.4347 112.339 87.4243 112.984C111.157 116.78 134.884 120.586 158.605 124.404C172.903 126.694 187.201 128.952 201.413 131.404C203.076 131.785 204.558 132.676 205.625 133.937C217.337 147.733 228.901 161.594 240.316 175.519C241.789 177.31 242.851 177.648 245.077 176.519C264.802 166.47 284.631 156.599 304.374 146.582C305.167 146.102 306.095 145.856 307.038 145.876C307.981 145.896 308.896 146.181 309.665 146.695C322.113 153.405 334.613 159.986 347.096 166.615L351 168.761C348.825 168.97 347.438 169.164 346.034 169.229C331.976 169.777 317.935 170.341 303.877 170.842C303.083 170.765 302.287 170.976 301.652 171.431C301.016 171.886 300.587 172.552 300.453 173.293C294.939 190.278 289.288 207.166 283.706 224.183C283.389 225.438 283.143 226.709 282.97 227.989L250.642 240.893C228.484 249.797 206.327 258.684 184.17 267.556C181.753 268.416 179.775 270.112 178.639 272.298C167.372 292.847 156.042 313.364 144.65 333.849C144.29 334.527 143.879 335.188 143.485 335.865L142.937 335.736ZM84.7189 116.242L84.3251 116.968L166.019 215.618L200.265 134.84L84.7189 116.242ZM203.433 137.001C191.927 164.164 180.711 190.617 169.187 217.569L275.47 224.812L275.864 224.118L203.433 137.001ZM169.016 221.054C172.869 236.038 176.567 250.474 180.368 265.249L271.121 228.796L270.898 227.973L169.016 221.054ZM244.717 180.729L279.991 223.118C287.97 198.923 295.727 175.422 303.501 151.921L302.816 151.518L244.717 180.729ZM71.243 150.792L70.9691 151.583L154.204 208.44L154.667 207.892C154.324 207.392 154.016 206.859 153.622 206.392C138.291 187.853 122.932 169.347 107.544 150.873C107.106 150.422 106.579 150.058 105.991 149.801C105.403 149.543 104.767 149.398 104.119 149.373C99.1023 149.373 94.0681 149.663 89.051 149.889C83.0922 150.244 77.1676 150.486 71.243 150.792ZM151.071 312.59L151.824 312.719C152.097 312.384 152.348 312.034 152.578 311.671C160.437 297.476 168.331 283.282 176.088 269.024C176.628 267.751 176.724 266.35 176.362 265.023C173.69 254.216 170.899 243.426 168.125 232.635C167.886 231.699 167.509 230.764 167.201 229.844H166.482L151.071 312.59ZM336.394 165.986L336.582 165.132L308.107 150.018L302.422 167.228L336.394 165.986Z"
      fill="white" />
<defs>
<linearGradient id="paint0_linear_4099_456"
                x1="203"
                y1="0"
                x2="203"
                y2="406"
                gradientUnits="userSpaceOnUse">
<stop stop-color="#AE0000" />
<stop offset="1"
      stop-color="#EB0000" />
</linearGradient>
</defs>
</svg>