<svg width="13" height="23" viewBox="0 0 13 23" fill="none" xmlns="http://www.w3.org/2000/svg">
<path d="M1.31824 19.4458L1.67079 19.7983L1.31824 19.4458C0.834024 19.93 0.834024 20.7163 1.31824 21.2005L1.32012 21.2024C1.56178 21.4415 1.87897 21.5634 2.19636 21.5634C2.51136 21.5634 2.83042 21.4446 3.07447 21.2005L11.9654 12.3096C12.4496 11.8254 12.4496 11.0391 11.9654 10.5549L3.07448 1.66394C2.59026 1.17973 1.80392 1.17973 1.3197 1.66394C0.835503 2.14814 0.835482 2.93444 1.31964 3.41866C1.31966 3.41868 1.31968 3.4187 1.3197 3.41872L9.33109 11.4329L1.31824 19.4458Z" fill="#EB0000" stroke="#EB0000"/>
</svg>
