<svg width="241" height="318" viewBox="0 0 241 318" fill="none" xmlns="http://www.w3.org/2000/svg">
<circle cx="302.5" cy="175.5" r="222.5" fill="#F2F2F2"/>
<path fill-rule="evenodd" clip-rule="evenodd" d="M532 209C532 348.176 419.176 461 280 461C171.573 461 79.1394 392.522 43.5888 296.454C57.16 292.173 67 279.486 67 264.5C67 245.998 52.0015 231 33.5 231C31.9648 231 30.4538 231.103 28.9734 231.303C28.329 223.955 28 216.516 28 209C28 69.8242 140.824 -43 280 -43C419.176 -43 532 69.8242 532 209ZM26.9945 231.631C26.3362 224.175 26 216.627 26 209C26 68.7197 139.72 -45 280 -45C420.28 -45 534 68.7197 534 209C534 349.28 420.28 463 280 463C170.656 463 77.45 393.908 41.6576 297C39.0464 297.653 36.3137 298 33.5 298C14.9985 298 0 283.002 0 264.5C0 248.224 11.6067 234.66 26.9945 231.631Z" fill="url(#paint0_linear_4105_452)"/>
<defs>
<linearGradient id="paint0_linear_4105_452" x1="12.5" y1="231" x2="12.5" y2="298" gradientUnits="userSpaceOnUse">
<stop stop-color="#AE0000"/>
<stop offset="1" stop-color="#EB0000"/>
</linearGradient>
</defs>
</svg>
