<svg width="215" height="318" viewBox="0 0 215 318" fill="none" xmlns="http://www.w3.org/2000/svg">
<circle cx="276.5" cy="222.5" r="222.5" fill="#F2F2F2"/>
<path fill-rule="evenodd" clip-rule="evenodd" d="M506 209C506 348.176 393.176 461 254 461C114.824 461 2 348.176 2 209C2 167.354 12.1024 128.067 29.9903 93.4572C32.4329 95.0647 35.3572 96 38.5 96C47.0604 96 54 89.0604 54 80.5C54 74.6112 50.7161 69.4894 45.8796 66.8661C91.2708 0.52972 167.552 -43 254 -43C393.176 -43 506 69.8242 506 209ZM44.0365 66.0181C89.7647 -1.00228 166.744 -45 254 -45C394.28 -45 508 68.7197 508 209C508 349.28 394.28 463 254 463C113.72 463 0 349.28 0 209C0 166.9 10.2424 127.193 28.3713 92.2332C25.0817 89.3909 23 85.1886 23 80.5C23 71.9396 29.9396 65 38.5 65C40.4506 65 42.3171 65.3603 44.0365 66.0181Z" fill="url(#paint0_linear_4109_460)"/>
<defs>
<linearGradient id="paint0_linear_4109_460" x1="28.7836" y1="65" x2="28.7836" y2="96" gradientUnits="userSpaceOnUse">
<stop stop-color="#AE0000"/>
<stop offset="1" stop-color="#EB0000"/>
</linearGradient>
</defs>
</svg>
