<svg width="215" height="318" viewBox="0 0 215 318" fill="none" xmlns="http://www.w3.org/2000/svg">
<circle cx="289.5" cy="192.5" r="248.5" fill="#F2F2F2"/>
<path fill-rule="evenodd" clip-rule="evenodd" d="M509 154C509 293.176 396.176 406 257 406C117.824 406 5 293.176 5 154C5 129.648 8.45405 106.104 14.8989 83.8288C17.1267 84.5881 19.5152 85 22 85C34.1503 85 44 75.1503 44 63C44 53.9734 38.5637 46.2165 30.7866 42.8247C71.8636 -40.5981 157.728 -98 257 -98C396.176 -98 509 14.8242 509 154ZM28.9102 42.1071C70.2812 -42.067 156.875 -100 257 -100C397.28 -100 511 13.7197 511 154C511 294.28 397.28 408 257 408C116.72 408 3 294.28 3 154C3 129.39 6.49989 105.598 13.0291 83.0939C5.3505 79.6605 0 71.9551 0 63C0 50.8497 9.84974 41 22 41C24.4139 41 26.7371 41.3888 28.9102 42.1071Z" fill="url(#paint0_linear_4109_459)"/>
<defs>
<linearGradient id="paint0_linear_4109_459" x1="-1.64178" y1="173.328" x2="-1.64178" y2="217.328" gradientUnits="userSpaceOnUse">
<stop stop-color="#AE0000"/>
<stop offset="1" stop-color="#EB0000"/>
</linearGradient>
</defs>
</svg>
